<?xml version="1.0" encoding="UTF-8" standalone="no"?>
<svg
   width="80"
   height="51.745399"
   viewBox="0 0 21.166666 13.690971"
   version="1.1"
   id="svg8"
   inkscape:version="1.1.1 (3bf5ae0d25, 2021-09-20)"
   sodipodi:docname="logo.svg"
   xmlns:inkscape="http://www.inkscape.org/namespaces/inkscape"
   xmlns:sodipodi="http://sodipodi.sourceforge.net/DTD/sodipodi-0.dtd"
   xmlns="http://www.w3.org/2000/svg"
   xmlns:svg="http://www.w3.org/2000/svg"
   xmlns:rdf="http://www.w3.org/1999/02/22-rdf-syntax-ns#"
   xmlns:cc="http://creativecommons.org/ns#"
   xmlns:dc="http://purl.org/dc/elements/1.1/">
  <defs
     id="defs2" />
  <sodipodi:namedview
     borderlayer="true"
     inkscape:showpageshadow="true"
     units="px"
     id="base"
     pagecolor="#5d5d5d"
     bordercolor="#000000"
     borderopacity="1"
     inkscape:pageopacity="0"
     inkscape:pageshadow="2"
     inkscape:zoom="2.8"
     inkscape:cx="-3.9285714"
     inkscape:cy="-1.4285714"
     inkscape:document-units="px"
     inkscape:current-layer="layer1"
     inkscape:document-rotation="0"
     showgrid="false"
     inkscape:pagecheckerboard="false"
     showborder="false"
     fit-margin-top="0"
     fit-margin-left="0"
     fit-margin-right="0"
     fit-margin-bottom="0"
     inkscape:window-width="1920"
     inkscape:window-height="986"
     inkscape:window-x="-11"
     inkscape:window-y="237"
     inkscape:window-maximized="1" />
  <metadata
     id="metadata5">
    <rdf:RDF>
      <cc:Work
         rdf:about="">
        <dc:format>image/svg+xml</dc:format>
        <dc:type
           rdf:resource="http://purl.org/dc/dcmitype/StillImage" />
      </cc:Work>
    </rdf:RDF>
  </metadata>
  <g
     inkscape:label="Layer 1"
     inkscape:groupmode="layer"
     id="layer1"
     transform="translate(11.670346,-99.43963)">
    <path
       id="path900"
       style="font-weight:900;font-size:4.23333px;line-height:1;font-family:Montserrat;-inkscape-font-specification:'Montserrat Heavy';letter-spacing:0px;word-spacing:0px;fill:#ffffff;stroke-width:2.2286"
       d="m -1.0505719,99.43963 c -0.285646,0 -0.5174236,0.07783 -0.6953549,0.232357 -0.1732603,0.14984 -0.2597939,0.341183 -0.2597939,0.575313 0,0.23414 0.086534,0.42851 0.2597939,0.58303 0.1779313,0.14983 0.4097089,0.22464 0.6953549,0.22464 0.29030813,0 0.52209013,-0.077 0.69535053,-0.23149 0.17325168,-0.15928 0.26064992,-0.36012 0.26064992,-0.60362 0,-0.229446 -0.08739864,-0.417296 -0.26064992,-0.562452 -0.1732604,-0.145144 -0.4050424,-0.217778 -0.69535053,-0.217778 z m -10.6197741,0.85054 v 4.91635 h 1.62992 v -1.21495 l 0.3721141,-0.41497 1.2286522,1.62992 h 1.9180063 l -2.065476,-2.75312 1.9668791,-2.16323 h -1.8048306 l -1.6153451,1.7834 v -1.7834 z m 7.1575874,1.00402 c -0.4120751,0 -0.784742,0.0843 -1.1171974,0.25294 -0.3277847,0.16857 -0.5873986,0.4047 -0.7793775,0.70906 -0.187308,0.2997 -0.2812255,0.64149 -0.2812255,1.02546 0,0.37928 0.096099,0.72107 0.2880868,1.02544 0.1919877,0.30436 0.4633403,0.54353 0.8145319,0.7168 0.3511914,0.16857 0.7590785,0.25292 1.2226513,0.25292 0.7445262,0 1.3041982,-0.2061 1.6787923,-0.61819 l -0.8291062,-0.83595 c -0.1357966,0.10303 -0.2619099,0.17564 -0.3789708,0.21778 -0.1123808,0.0422 -0.2532705,0.0634 -0.4218425,0.0634 -0.1966672,0 -0.360182,-0.0375 -0.4912907,-0.11233 -0.1311177,-0.0796 -0.2250347,-0.1918 -0.2812254,-0.33696 h 2.6690865 c 0.014053,-0.22472 0.021423,-0.34952 0.021423,-0.37297 0,-0.41674 -0.096099,-0.77463 -0.2880868,-1.07431 -0.1872994,-0.29968 -0.4425629,-0.52712 -0.7656591,-0.68164 -0.3184166,-0.15447 -0.6719611,-0.23151 -1.060603,-0.23151 z m 6.679154,0 c -0.3090486,0 -0.6199804,0.0395 -0.9337085,0.11913 -0.30904867,0.075 -0.57387331,0.1806 -0.79395627,0.31638 l 0.50586944,1.04689 c 0.12642893,-0.0936 0.27819633,-0.16623 0.45613633,-0.21778 0.1779311,-0.0562 0.3540405,-0.0849 0.5273009,-0.0849 0.430754,0 0.6721016,0.15048 0.7236477,0.45013 H 2.0120644 c -0.5900019,0 -1.03007569,0.0982 -1.32040137,0.29495 -0.29030808,0.19667 -0.4355564,0.48411 -0.4355564,0.8634 0,0.22475 0.0543112,0.42871 0.16204808,0.61132 0.11238072,0.17791 0.2737144,0.32097 0.48442928,0.42871 0.21539451,0.10303 0.47500851,0.15429 0.77937751,0.15429 0.5431836,0 0.9062804,-0.19219 1.0889001,-0.57616 v 0.50587 h 1.4747325 v -2.06463 c 0,-0.62745 -0.177422,-1.09102 -0.5333064,-1.3907 -0.3558669,-0.30436 -0.8716048,-0.457 -1.5458926,-0.457 z m 5.5208058,0 c -0.5478584,0 -0.9622776,0.16127 -1.2432312,0.48442 V 101.3645 H 4.9340878 v 3.84202 h 1.5870478 v -1.70709 c 0,-0.55254 0.2722216,-0.82825 0.815388,-0.82825 0.1077056,0 0.2242488,0.008 0.3506776,0.0274 z m -9.5308734,0.0703 v 3.63109 c 0,0.14981 -0.030905,0.25985 -0.091741,0.3301 -0.060878,0.0748 -0.1400242,0.11233 -0.2383581,0.11233 -0.1264289,0 -0.2460141,-0.03 -0.3583909,-0.0909 l -0.3789753,1.10262 c 0.2434899,0.12643 0.5683421,0.18948 0.9757243,0.18948 0.5244431,0 0.9345119,-0.14734 1.22951287,-0.44243 0.29968056,-0.2903 0.44927936,-0.6856 0.44927936,-1.18664 v -3.64566 z m -2.655368,1.01087 c 0.1638566,0 0.2995268,0.047 0.4072637,0.14053 0.1077367,0.0889 0.1781814,0.21377 0.2109211,0.37297 h -1.2363741 c 0.032749,-0.16393 0.1031839,-0.29089 0.2109211,-0.37982 0.1077019,-0.0889 0.2433846,-0.1329 0.4072682,-0.1329 z m 6.7648931,1.31439 h 0.3926892 v 0.26665 c -0.042186,0.12179 -0.1074116,0.21269 -0.1963424,0.27351 -0.088966,0.0609 -0.1894239,0.0918 -0.3018053,0.0918 -0.1170746,0 -0.2109915,-0.0278 -0.2812298,-0.0841 -0.065589,-0.0609 -0.098601,-0.13655 -0.098601,-0.22548 0,-0.21541 0.162194,-0.3224 0.4852896,-0.3224 z m 1.0023051,3.25899 c -0.5188373,0.008 -0.9237655,0.15662 -1.2140824,0.44241 -0.2996894,0.29032 -0.4492795,0.68563 -0.4492795,1.18666 v 0.0214 H 1.0783513 v 1.15835 h 0.5264448 v 2.47275 h 1.5870524 v -2.47275 h 0.7870948 v -1.15835 H 3.1429757 v -0.006 c 0,-0.14982 0.033013,-0.26072 0.098601,-0.33095 0.070238,-0.0748 0.1633091,-0.11233 0.2803694,-0.11233 0.1077018,0 0.2272867,0.0309 0.3583953,0.0917 l 0.3798268,-1.10262 c -0.1123807,-0.0609 -0.2532705,-0.10784 -0.4218424,-0.14053 -0.168572,-0.0327 -0.3416524,-0.049 -0.5195836,-0.049 -0.016988,0 -0.033846,-2.9e-4 -0.050585,0 z m -14.938504,0.36525 v 4.91634 h 1.657358 v -1.20807 h 0.7099281 c 0.4542049,0 0.8494973,-0.0748 1.1866413,-0.22464 0.3371439,-0.14983 0.5976184,-0.36553 0.7802379,-0.64648 0.1826197,-0.28096 0.273508,-0.60883 0.273508,-0.98344 0,-0.37461 -0.090888,-0.7025 -0.273508,-0.98344 -0.1826195,-0.28095 -0.443094,-0.4958 -0.7802379,-0.64562 -0.337144,-0.14982 -0.7324364,-0.22465 -1.1866413,-0.22465 z m 16.6232971,0.17406 v 0.90026 h -0.577034 v 3.84202 h 0.577034 v 0.90027 h 0.432984 v -0.90027 h 0.5770341 v -3.84202 H 5.3859351 v -0.90026 z m 1.8879973,0.036 v 1.07518 H 6.3145036 v 1.15835 h 0.5264448 v 0.98344 c 0,0.51977 0.1452352,0.91072 0.435556,1.17293 0.2903128,0.25754 0.7047448,0.38669 1.243236,0.38669 0.4120704,0 0.7377696,-0.0684 0.97658,-0.20406 l -0.3798312,-1.10263 c -0.1030216,0.0702 -0.2217512,0.10553 -0.3575344,0.10553 -0.098378,0 -0.1783792,-0.033 -0.2392144,-0.0986 -0.06084,-0.0655 -0.090888,-0.15645 -0.090888,-0.27351 v -0.96972 H 9.2150908 V 108.5993 H 8.4288516 v -1.07518 z m -10.5880481,0.79396 c -0.5478588,0 -0.962278,0.16127 -1.2432312,0.48443 v -0.41413 h -1.5107425 v 3.84201 h 1.5879082 v -1.70707 c 0,-0.55255 0.2713481,-0.82826 0.8145317,-0.82826 0.1077018,0 0.2251049,0.008 0.3515338,0.0274 z m 2.4444514,0 c -0.4261227,0 -0.8105283,0.0843 -1.1523474,0.25293 -0.3371439,0.16857 -0.6019774,0.40472 -0.7939562,0.70908 -0.1919877,0.29968 -0.2880868,0.64148 -0.2880868,1.02545 0,0.38396 0.096099,0.72879 0.2880868,1.03316 0.1919788,0.29968 0.4568123,0.5358 0.7939562,0.70907 0.3418191,0.16857 0.7262247,0.25294 1.1523474,0.25294 0.43078461,0 0.81434285,-0.0843 1.15148677,-0.25294 0.34183672,-0.17327 0.60665704,-0.40939 0.79395624,-0.70907 0.19198776,-0.30437 0.2880868,-0.6492 0.2880868,-1.03316 0,-0.38397 -0.0960993,-0.72577 -0.2880868,-1.02545 -0.1872992,-0.30436 -0.45211952,-0.54051 -0.79395624,-0.70908 -0.33714392,-0.16858 -0.72070216,-0.25293 -1.15148677,-0.25293 z m -8.7103397,0.27436 h 0.6044661 c 0.2247614,0 0.3934877,0.0514 0.5058685,0.1543 0.1123824,0.0984 0.1680499,0.23836 0.1680499,0.42099 0,0.18265 -0.055669,0.32573 -0.1680499,0.42869 -0.1123758,0.0984 -0.2811071,0.1475 -0.5058685,0.1475 h -0.6044661 z m 8.7103397,0.96201 c 0.1826195,0 0.33221829,0.0652 0.44927493,0.19634 0.11706128,0.13107 0.17576696,0.31592 0.17576696,0.55475 0,0.2388 -0.0587064,0.42665 -0.17576696,0.56244 -0.11705632,0.13108 -0.26665543,0.19635 -0.44927493,0.19635 -0.1826196,0 -0.3330658,-0.0652 -0.4501354,-0.19635 -0.1170613,-0.13572 -0.1757671,-0.32364 -0.1757671,-0.56244 0,-0.23883 0.058706,-0.42364 0.1757671,-0.55475 0.1170696,-0.13107 0.2675158,-0.19634 0.4501354,-0.19634 z" />
  </g>
</svg>
